HIERARCHY
ROOT Hips
{
	OFFSET 0.000000 88.474243 0.000000
	CHANNELS 6 Xposition Yposition Zposition Zrotation Yrotation Xrotation 
	JOINT Hips_Spine
	{
		OFFSET 0.000000 0.000000 0.000000
		CHANNELS 3 Zrotation Yrotation Xrotation
		JOINT Spine
		{
			OFFSET 0.005100 8.711998 -0.691000
			CHANNELS 3 Zrotation Yrotation Xrotation
			JOINT Spine1
			{
				OFFSET -0.009200 8.660301 -1.275000
				CHANNELS 3 Zrotation Yrotation Xrotation
				JOINT Spine2
				{
					OFFSET 0.006300 9.852501 -1.857000
					CHANNELS 3 Zrotation Yrotation Xrotation
					JOINT Spine2_Neck
					{
						OFFSET 0.000000 0.000000 0.000000
						CHANNELS 3 Zrotation Yrotation Xrotation
						JOINT Neck
						{
							OFFSET 0.016300 11.420799 -0.263300
							CHANNELS 3 Zrotation Yrotation Xrotation
							End Site #name: Head
							{
								OFFSET -0.019200 9.262405 2.362500
							}
						}
					}
					JOINT Spine2_LeftShoulder
					{
						OFFSET 0.000000 0.000000 0.000000
						CHANNELS 3 Zrotation Yrotation Xrotation
						JOINT LeftShoulder
						{
							OFFSET 5.616900 6.732201 -0.345700
							CHANNELS 3 Zrotation Yrotation Xrotation
							JOINT LeftArm
							{
								OFFSET 10.664888 -0.183372 -2.440700
								CHANNELS 3 Zrotation Yrotation Xrotation
								JOINT LeftForeArm
								{
									OFFSET 27.459126 0.000000 0.000000
									CHANNELS 3 Zrotation Yrotation Xrotation
									End Site #name: LeftHand
									{
										OFFSET 21.306858 0.000000 0.000000
									}
								}
							}
						}
					}
					JOINT Spine2_RightShoulder
					{
						OFFSET 0.000000 0.000000 0.000000
						CHANNELS 3 Zrotation Yrotation Xrotation
						JOINT RightShoulder
						{
							OFFSET -5.580300 6.737503 -0.344400
							CHANNELS 3 Zrotation Yrotation Xrotation
							JOINT RightArm
							{
								OFFSET -10.679335 -0.188484 -2.383900
								CHANNELS 3 Zrotation Yrotation Xrotation
								JOINT RightForeArm
								{
									OFFSET -27.503529 0.000000 0.000000
									CHANNELS 3 Zrotation Yrotation Xrotation
									End Site #name: RightHand
									{
										OFFSET -21.306808 0.000000 0.000000
									}
								}
							}
						}
					}
				}
			}
		}
	}
	JOINT Hips_LeftUpLeg
	{
		OFFSET 0.000000 0.000000 0.000000
		CHANNELS 3 Zrotation Yrotation Xrotation
		JOINT LeftUpLeg
		{
			OFFSET 6.857700 -6.739601 0.312100
			CHANNELS 3 Zrotation Yrotation Xrotation
			JOINT LeftLeg
			{
				OFFSET -0.367590 -34.731552 -4.572400
				CHANNELS 3 Zrotation Yrotation Xrotation
				End Site #name: LeftFoot
				{
					OFFSET 0.367590 -34.656704 -6.067400
				}
			}
		}
	}
	JOINT Hips_RightUpLeg
	{
		OFFSET 0.000000 0.000000 0.000000
		CHANNELS 3 Zrotation Yrotation Xrotation
		JOINT RightUpLeg
		{
			OFFSET -6.876100 -6.733299 0.301000
			CHANNELS 3 Zrotation Yrotation Xrotation
			JOINT RightLeg
			{
				OFFSET 0.347353 -34.795158 -4.515900
				CHANNELS 3 Zrotation Yrotation Xrotation
				End Site #name: RightFoot
				{
					OFFSET -0.347353 -34.589367 -6.070300
				}
			}
		}
	}
}
MOTION
Frames: 17
Frame Time: 0.041667
0.043192 0.020545 0.054487 -0.647345 1.928911 -2.782198 0.000000 -0.000000 0.000000 1.365877 2.514744 6.106091 -2.467428 1.434787 4.494586 0.000000 0.000000 0.000000 -1.991152 1.182533 1.858174 2.952968 -0.788386 1.357994 -2.673473 0.915346 4.440163 -1.384084 2.347794 -0.682524 -72.678291 -16.419519 44.146459 0.385138 -45.569061 0.319779 -1.637593 1.310558 3.307181 2.958836 0.976291 2.918662 78.971316 3.140925 47.543348 0.027274 36.699715 0.721397 0.000000 0.000000 0.000000 2.750285 4.818770 -14.527077 1.981021 5.078958 18.755595 0.000000 0.000000 0.000000 -2.865797 -10.466309 -12.966170 -1.998410 -3.956373 17.245777 
0.069159 0.073303 0.035323 -0.675350 2.350624 -2.837887 0.000000 -0.000000 0.000000 -0.059672 1.106729 2.087659 -1.827413 0.914235 4.263564 0.000000 0.000000 0.000000 -1.890923 1.009002 3.830972 2.517479 -0.288823 2.421705 -1.867422 0.663768 4.651504 0.749033 3.738413 -1.236446 -69.839615 -11.347364 52.048775 0.115132 -39.221519 0.498196 -1.792601 0.605248 3.749057 3.260692 1.265876 1.425725 83.274956 7.187992 48.231536 0.113197 22.069985 0.436777 0.000000 -0.000000 -0.000000 3.014296 3.929796 -12.904798 1.075883 5.361550 16.125531 0.000000 -0.000000 0.000000 -2.814701 -10.450296 -12.373735 -1.485199 -2.733916 16.655034 
0.149263 0.078694 0.000907 -0.877775 2.633224 -3.055298 0.000000 -0.000000 0.000000 -0.190541 1.038243 0.448498 -1.181723 0.748629 3.888152 0.000000 0.000000 0.000000 -1.536230 0.785765 3.378469 1.724887 -0.272361 4.286890 -1.306731 0.660113 4.183965 -0.543879 5.448059 -1.042085 -68.279172 -9.002705 55.863277 0.141768 -32.028957 0.039295 -1.224776 0.646924 3.278123 3.011193 1.716754 0.754736 79.531744 5.528471 45.914935 0.093358 19.925094 0.235292 0.000000 0.000000 -0.000000 3.329828 4.709441 -12.419985 0.734109 5.136216 15.753811 0.000000 -0.000000 -0.000000 -2.939690 -9.626332 -12.097601 -1.062114 -2.873473 16.479724 
0.242154 0.068416 -0.046125 -1.039450 2.715805 -3.130769 0.000000 -0.000000 0.000000 -0.156133 1.044713 0.367734 -1.107558 0.833457 3.999010 0.000000 0.000000 0.000000 -1.379659 0.778534 3.363257 1.077367 -0.707234 6.332750 -1.149975 0.697068 4.120774 -0.469601 4.771525 -1.068295 -69.183644 -10.057482 57.417446 0.240105 -27.269414 -0.054892 -0.986088 0.736565 3.430235 2.421132 3.473329 1.003351 78.129144 6.395594 47.049753 0.100239 21.827683 0.104188 0.000000 0.000000 -0.000000 3.447869 5.498251 -12.458546 0.928829 5.376341 15.954516 0.000000 -0.000000 -0.000000 -2.909372 -9.286853 -12.230593 -0.840648 -2.486785 16.750482 
0.346196 0.057568 -0.092877 -1.131288 2.904397 -3.159932 0.000000 -0.000000 0.000000 -0.159826 1.094654 0.446432 -1.254879 0.849431 4.075077 0.000000 0.000000 0.000000 -1.519189 0.818879 3.468440 0.766465 -0.989394 7.213850 -1.338404 0.672907 4.207348 -0.704867 4.216681 -1.034380 -70.181026 -10.976484 58.387102 0.291962 -27.088479 -0.078607 -1.173953 0.792550 3.577567 2.025392 4.829426 1.323609 77.652139 6.329667 49.355369 0.086814 24.518272 0.070516 0.000000 0.000000 -0.000000 3.508549 6.173083 -12.610415 1.112465 5.609023 16.201263 0.000000 -0.000000 -0.000000 -2.920180 -9.238883 -12.319401 -0.596746 -2.061380 16.926364 
0.454211 0.048062 -0.136067 -1.192473 3.110893 -3.166039 0.000000 -0.000000 0.000000 -0.168291 1.153707 0.483351 -1.446581 0.830654 4.178286 0.000000 0.000000 0.000000 -1.726651 0.839181 3.591315 0.570660 -1.186548 7.830719 -1.549682 0.636189 4.338886 -0.952756 3.853979 -0.947135 -70.437527 -11.066528 58.969267 0.316361 -27.251204 -0.116426 -1.405613 0.785367 3.663521 1.746612 5.738193 1.559433 76.862395 6.401149 50.357156 0.059340 26.992049 0.103949 0.000000 0.000000 -0.000000 3.543083 6.602948 -12.714555 1.245209 5.811181 16.369682 0.000000 0.000000 -0.000000 -2.942241 -9.236161 -12.316663 -0.423210 -1.763585 16.921125 
0.560428 0.040092 -0.176492 -1.241845 3.265060 -3.163536 0.000000 -0.000000 0.000000 -0.055603 1.244732 0.487047 -1.576505 0.819177 4.243521 0.000000 0.000000 0.000000 -1.869798 0.847863 3.669340 0.480764 -1.307889 8.145246 -1.667835 0.620898 4.430644 -0.985432 3.763420 -0.903648 -70.257874 -10.698515 59.138456 0.315850 -27.415187 -0.115332 -1.546757 0.773266 3.697014 1.639098 5.959335 1.619696 75.979137 6.522960 50.416781 0.046290 29.790289 0.153940 0.000000 0.000000 -0.000000 3.564596 6.903914 -12.798527 1.325014 5.947456 16.501544 0.000000 0.000000 -0.000000 -2.962400 -9.275058 -12.305586 -0.323074 -1.574818 16.873421 
0.659472 0.033076 -0.214894 -1.301077 3.377713 -3.154794 0.000000 -0.000000 0.000000 0.084232 1.328314 0.491893 -1.651005 0.811025 4.277042 0.000000 0.000000 0.000000 -1.955092 0.862952 3.698598 0.444390 -1.344105 8.232446 -1.732445 0.626133 4.479271 -0.956074 3.838031 -0.884475 -70.006721 -10.258155 59.227560 0.304043 -27.575143 -0.103688 -1.628513 0.782664 3.713327 1.471913 6.075875 1.638603 75.353077 6.709184 49.774563 0.057193 33.475304 0.203441 0.000000 0.000000 -0.000000 3.573320 7.129783 -12.886129 1.387589 6.026617 16.623284 0.000000 0.000000 -0.000000 -2.959562 -9.314097 -12.321740 -0.274032 -1.467567 16.856629 
0.746036 0.026972 -0.251365 -1.374803 3.465230 -3.142863 0.000000 -0.000000 0.000000 0.177296 1.374558 0.522091 -1.704363 0.811651 4.292412 0.000000 0.000000 0.000000 -2.022219 0.881820 3.702331 0.439782 -1.332137 8.219575 -1.787420 0.644726 4.501592 -0.891048 4.073174 -0.883363 -69.823523 -9.788975 59.275729 0.289206 -27.577769 -0.095289 -1.690427 0.795197 3.711809 1.224015 6.289317 1.676996 74.837516 6.796343 49.204850 0.067107 38.692542 0.250178 0.000000 0.000000 -0.000000 3.583373 7.274159 -12.976694 1.444069 6.072162 16.752367 0.000000 0.000000 -0.000000 -2.938761 -9.342940 -12.349675 -0.246189 -1.404571 16.849797 
0.820816 0.021837 -0.286035 -1.444977 3.526932 -3.131782 0.000000 -0.000000 0.000000 0.242172 1.415205 0.541392 -1.765441 0.817837 4.286451 0.000000 0.000000 0.000000 -2.087960 0.899763 3.674791 0.436006 -1.316332 8.190207 -1.841590 0.658212 4.485077 -0.808029 4.365524 -0.896907 -69.705210 -9.404990 59.277846 0.276359 -27.756624 -0.086357 -1.754507 0.809791 3.687382 0.890517 6.530237 1.722032 74.303822 6.767050 48.800843 0.083153 45.510694 0.301861 0.000000 0.000000 -0.000000 3.594735 7.345913 -13.049113 1.490727 6.095062 16.846434 0.000000 0.000000 -0.000000 -2.911963 -9.348751 -12.374168 -0.225738 -1.362645 16.843133 
0.884497 0.017639 -0.319201 -1.508655 3.577471 -3.123750 0.000000 -0.000000 0.000000 0.292500 1.450885 0.547544 -1.829857 0.826234 4.258449 0.000000 0.000000 0.000000 -2.153686 0.914898 3.626242 0.437017 -1.298866 8.179553 -1.896934 0.669102 4.448210 -0.743637 4.665919 -0.915024 -69.675308 -9.106434 59.309770 0.270672 -28.432273 -0.083524 -1.823403 0.822620 3.644125 0.529089 6.810721 1.775810 73.707378 6.699596 48.409075 0.110269 53.148381 0.366757 0.000000 0.000000 -0.000000 3.607565 7.374655 -13.102156 1.517063 6.091754 16.913393 0.000000 0.000000 -0.000000 -2.887381 -9.343577 -12.393915 -0.205864 -1.330812 16.835972 
0.937706 0.014365 -0.351344 -1.560780 3.626391 -3.118704 0.000000 -0.000000 0.000000 0.342353 1.485136 0.552834 -1.889754 0.833783 4.215647 0.000000 0.000000 0.000000 -2.213481 0.926237 3.563647 0.435281 -1.287396 8.183867 -1.947866 0.677544 4.397330 -0.685206 4.929686 -0.931125 -69.662474 -8.805792 59.356900 0.267149 -29.028850 -0.079874 -1.886485 0.833715 3.590797 0.184029 7.072632 1.825073 73.084031 6.626605 47.964134 0.159195 60.814911 0.452700 0.000000 0.000000 -0.000000 3.620106 7.378362 -13.136283 1.527042 6.071931 16.947372 0.000000 0.000000 -0.000000 -2.868937 -9.336072 -12.395670 -0.188610 -1.305355 16.807174 
0.980990 0.011849 -0.382882 -1.600822 3.679270 -3.119076 0.000000 -0.000000 0.000000 0.398878 1.513185 0.572277 -1.940546 0.839862 4.170720 0.000000 0.000000 0.000000 -2.265012 0.935938 3.502193 0.427449 -1.281631 8.204603 -1.993019 0.683276 4.345204 -0.632904 5.147361 -0.943031 -69.675980 -8.471303 59.476387 0.268571 -29.521742 -0.076107 -1.942209 0.844104 3.536373 -0.159354 7.303213 1.858642 72.481040 6.518366 47.515485 0.245858 67.665773 0.563912 0.000000 0.000000 -0.000000 3.633226 7.376703 -13.153116 1.522444 6.035743 16.960320 0.000000 0.000000 -0.000000 -2.853359 -9.324044 -12.384679 -0.175461 -1.284494 16.766082 
1.015575 0.010042 -0.413972 -1.632283 3.728512 -3.122086 0.000000 -0.000000 0.000000 0.458222 1.540986 0.628245 -1.982008 0.845291 4.133641 0.000000 0.000000 0.000000 -2.305953 0.945290 3.450692 0.416073 -1.282252 8.236361 -2.029336 0.688542 4.303592 -0.578372 5.337370 -0.951459 -69.672041 -8.116962 59.639223 0.269894 -29.916315 -0.073372 -1.986315 0.852458 3.492090 -0.389734 7.402895 1.878190 72.035686 6.423558 47.058603 0.330244 72.829402 0.635816 0.000000 0.000000 -0.000000 3.647637 7.372525 -13.160642 1.504142 5.987278 16.964189 0.000000 0.000000 -0.000000 -2.840034 -9.311781 -12.361206 -0.163438 -1.266241 16.711130 
1.042664 0.008940 -0.444851 -1.657096 3.771843 -3.125707 0.000000 -0.000000 0.000000 0.518689 1.567242 0.692771 -2.012201 0.849535 4.104907 0.000000 0.000000 0.000000 -2.335783 0.952673 3.413199 0.404632 -1.289300 8.276130 -2.057884 0.693335 4.270997 -0.519449 5.487546 -0.956072 -69.662926 -7.758814 59.804180 0.271946 -30.257901 -0.069718 -2.018624 0.858168 3.457828 -0.548355 7.478111 1.891538 71.805849 6.355337 46.654624 0.397134 75.916083 0.682771 0.000000 0.000000 -0.000000 3.661745 7.368370 -13.164222 1.481050 5.931259 16.971560 0.000000 0.000000 -0.000000 -2.826070 -9.302565 -12.336496 -0.151977 -1.247780 16.657626 
1.063522 0.008544 -0.475728 -1.673854 3.811464 -3.131091 0.000000 -0.000000 0.000000 0.573393 1.586517 0.749741 -2.035130 0.851263 4.087741 0.000000 0.000000 0.000000 -2.357667 0.957964 3.388646 0.394771 -1.302325 8.332647 -2.078560 0.695664 4.250170 -0.458870 5.610916 -0.960680 -69.638065 -7.444032 59.923165 0.276548 -30.629793 -0.067396 -2.042261 0.862386 3.434650 -0.651543 7.553228 1.904261 71.744180 6.280763 46.367666 0.458995 77.710085 0.734376 0.000000 0.000000 -0.000000 3.673917 7.359085 -13.165663 1.451034 5.871267 16.976748 0.000000 0.000000 -0.000000 -2.813098 -9.295803 -12.308903 -0.140945 -1.229058 16.607853 
1.079312 0.008810 -0.506714 -1.683318 3.844969 -3.137134 0.000000 -0.000000 0.000000 0.619914 1.602112 0.803469 -2.053029 0.852699 4.080303 0.000000 0.000000 0.000000 -2.372210 0.961730 3.376136 0.391792 -1.320156 8.393532 -2.093334 0.696455 4.239942 -0.415846 5.691869 -0.961262 -69.620409 -7.177357 60.044419 0.281299 -30.975875 -0.065433 -2.058213 0.866398 3.421629 -0.708598 7.636710 1.922527 71.764592 6.202354 46.135654 0.493922 78.590857 0.763348 0.000000 0.000000 -0.000000 3.685615 7.349689 -13.161439 1.419396 5.808600 16.984039 0.000000 0.000000 -0.000000 -2.803409 -9.290919 -12.274508 -0.132397 -1.211598 16.556101 
